<svg id="Line_color" height="512" viewBox="0 0 256 256" width="512" xmlns="http://www.w3.org/2000/svg" data-name="Line color"><path d="m131.9928 119.4182c-4.4494-25.2111-8.4643-40.4024-25.2114-60.0617-13.2392-15.542-21.1132-25.7173-23.9749-29.494v-.9072a4.9436 4.9436 0 1 0 -9.8871 0v.9074c-2.8617 3.7767-10.7357 13.952-23.9749 29.4938-16.7472 19.6593-20.762 34.8507-25.2115 60.0617-4.0444 22.9185-5.6316 79.5339 40.9052 91.3134 6.9653 2.19 17.4153 2.19 26.4494 0 46.5363-11.7795 44.9496-68.3949 40.9052-91.3134z" fill="#e0d8b8"/><path d="m117.6568 121.5471c-2.6125-14.6794-4.0836-27.0383-11.1225-40.4379-7.5705-14.4128-19.5486-27.3886-28.67-40.8077 0 0-21.1025 26.3949-28.673 40.8077-7.0388 13.4-8.51 25.7584-11.1224 40.4379-2.0271 11.39-1.5786 30.3593 2.4084 45.2338a41.6278 41.6278 0 0 0 36.6453 30.4047c18.0162 1.6132 33.77-14.1566 38.1256-30.4039 3.9877-14.8748 4.4357-33.8447 2.4086-45.2346z" fill="#f4f0d0"/><path d="m117.4747 215.1865c9.4037 10.66 32.9194 17.6851 55.6472 4.8579 15.2668-8.6161 28.67-23.2633 36.1238-34.0979 15.8662-23.0635 22.9722-35.8491 24.4283-61.477a274.0541 274.0541 0 0 1 3.5138-30.8486 273.9052 273.9052 0 0 1 -30.8483 3.5138c-25.6276 1.4566-38.4135 8.5623-61.477 24.4282-10.8346 7.4535-25.4816 20.8576-34.0979 36.1244-12.8273 22.7278-6.579 38.0134-.7638 47.5342a46.4723 46.4723 0 0 0 7.4739 9.965z" fill="#8b8f21"/><path d="m203.3328 183.7532c-6.62 9.487-20.3511 22.5841-33.6886 30.2825-14.568 8.4092-36.8586 8.42-48.458-5.46a41.6277 41.6277 0 0 1 -4.4123-47.4114c7.6984-13.3372 20.7953-27.0676 30.2817-33.688q.5954-.4153 1.1833-.8279-4.5939-5.8-8.7291-11.5715c-.3615.2522-.72.5011-1.0855.7571-19.0659 13.346-60.2214 52.2565-35.6443 93.4921a64.1067 64.1067 0 0 0 18.7027 18.703c41.2355 24.5768 80.1464-16.5784 93.4925-35.6442.2562-.3658.5049-.7243.7574-1.0855q-5.7645-4.1342-11.5715-8.7291-.4127.5881-.8283 1.1829z" fill="#e8e1c1"/><path d="m116.7738 161.164a41.6277 41.6277 0 0 0 4.4123 47.4114c11.5994 13.88 33.89 13.87 48.458 5.46 13.3375-7.6984 27.0682-20.7956 33.6886-30.2825q.4157-.5954.8282-1.183a343.9975 343.9975 0 0 1 -29.5453-26.3769 343.9851 343.9851 0 0 1 -26.3769-29.5453q-.5881.4125-1.1833.8279c-9.4863 6.6208-22.5832 20.3512-30.2816 33.6884z" fill="#f4f0d0"/><path d="m239.8981 94.0874-3.177-3.1765a271.2029 271.2029 0 0 1 -30.5379 3.478c-25.6406 1.4575-38.6932 8.3711-61.0747 23.6711-1.1424-1.5294-2.2693-3.06-3.3639-4.5867l-3.8082-.6526-1.0892.7595c-.7031.4922-1.6382 1.1642-2.749 1.9967-4.0917-22.5333-8.4079-38.2642-25.2232-58.004-12.4415-14.6054-20.1378-24.4686-23.3185-28.6371a7.6936 7.6936 0 0 0 -15.3871 0c-3.1808 4.1685-10.877 14.032-23.3186 28.6373-17.6408 20.709-21.5252 36.9993-25.8259 61.3669-1.1258 6.3785-4.3414 28.9083 1.535 51.0181 5.869 22.0814 19.1925 36.7756 38.6268 42.6677 18.5749 6.2538 36.4058-.944 39.1172-2.09.0392.0658 7.4164 12.1937 19.771 19.8551a54.0261 54.0261 0 0 0 27.9184 7.9994c14.0271 0 28.398-5.59 42.7136-16.6147a132.9686 132.9686 0 0 0 26.5208-27.8134l.759-1.0879-.6515-3.81c-1.527-1.0952-3.0578-2.2223-4.5869-3.3642 15.3017-22.3824 22.2143-35.4345 23.6715-61.075a271.3018 271.3018 0 0 1 3.4783-30.5377zm-92.1905 36.3026a348.6186 348.6186 0 0 0 24.9637 27.7484 348.6588 348.6588 0 0 0 27.7482 24.9635c-6.3739 8.7331-19.1592 21.0542-32.15 28.5525a41.8973 41.8973 0 0 1 -20.6578 5.3864h-.0026c-10.167-.0008-18.801-3.6333-24.3122-10.2282a38.9583 38.9583 0 0 1 -4.1411-44.2734c7.4982-12.9907 19.8194-25.7761 28.5518-32.1492zm-85.0835 76.927c-17.6541-5.384-29.338-18.414-34.7489-38.7712-5.587-21.0214-2.51-42.5517-1.4341-48.6495 4.522-25.6209 8.4225-39.7695 24.597-58.7563 13.3343-15.6535 21.277-25.926 24.0732-29.6162l.558-1.6607v-.9074a2.1936 2.1936 0 1 1 4.3871 0v.9072l.558 1.6607c2.7962 3.69 10.739 13.9625 24.0733 29.6165 16.0767 18.8722 20.0277 32.9694 24.5152 58.2981-2.4347 2.012-5.1976 4.4365-8.0953 7.2362-.1934-2.034-.4426-3.9193-.7434-5.6087-.3153-1.7725-.6145-3.5108-.9083-5.2213-2.1994-12.7988-4.0987-23.8522-10.487-36.0137-4.9006-9.329-11.6-18.0619-18.08-26.5071-3.66-4.7717-7.4459-9.7056-10.7508-14.5675l-4.422-.1714c-.8685 1.086-21.3544 26.7669-28.96 41.246-6.3884 12.1615-8.2876 23.2149-10.4871 36.0137-.2938 1.71-.593 3.4488-.9083 5.2213-1.98 11.1249-1.7708 30.6445 2.46 46.4274a44.3055 44.3055 0 0 0 31.0653 30.9816 33.5966 33.5966 0 0 0 25.434-1.9262 55.2186 55.2186 0 0 0 3.3983 9.1277c-2.3112.9412-19.0567 7.6119-35.0942 1.6403zm30.4982-16.3171a28.2642 28.2642 0 0 1 -13.4482 3.55c-.7665 0-1.5426-.0349-2.3058-.1031a38.9589 38.9589 0 0 1 -34.2348-28.3776c-4.0224-15.0066-4.23-33.514-2.3569-44.04.3175-1.7832.6177-3.5323.9137-5.2534 2.12-12.339 3.9515-22.9956 9.936-34.3874 5.9037-11.2391 20.4611-30.2484 26.1024-37.4702 2.8225 3.9647 5.85 7.9108 8.7973 11.7528 6.3384 8.2615 12.8922 16.8048 17.574 25.7171 5.9845 11.3918 7.8155 22.0483 9.936 34.3874.296 1.7212.5962 3.47.9136 5.2534a78.1831 78.1831 0 0 1 1.0189 9.8914 107.14 107.14 0 0 0 -14.1109 18.8211c-7.8938 13.6086-10.8097 27.2406-8.7354 40.258zm111.6129-4.4835c2.3816 1.85 4.7856 3.6634 7.1876 5.42-13.7591 19.1523-38.3979 40.9551-63.9294 40.9551a48.5619 48.5619 0 0 1 -25.0637-7.2 61.2037 61.2037 0 0 1 -17.8068-17.8049c-10.1-16.9694-9.5976-35.2658 1.4921-54.3844 10.2121-17.6057 26.1035-30.1624 32.26-34.6129 1.7547 2.4 3.5675 4.8034 5.4183 7.1854-18.79 14.1563-29.9009 33.7157-29.9009 33.7157a44.4754 44.4754 0 0 0 4.6836 50.55c6.5753 7.8684 16.7084 12.2015 28.5323 12.2015h.0032a47.4835 47.4835 0 0 0 23.4072-6.1228 120.7 120.7 0 0 0 33.7164-29.9033zm26.1932-62.2024c-1.3734 24.18-7.97 36.6854-22.5634 58.0543q-1.252-.9708-2.4965-1.9532a341.6641 341.6641 0 0 1 -29.3085-26.1664 341.6114 341.6114 0 0 1 -26.1653-29.3082q-.9846-1.2428-1.9535-2.4965c21.3684-14.5927 33.8744-21.19 58.054-22.564 9.155-.52 18.339-1.5012 27.3555-2.9219-1.4207 9.0176-2.4019 18.2019-2.9224 27.3554z" fill="#1d1d1b"/></svg>