<svg id="Capa_1" enable-background="new 0 0 494.403 494.403" height="512" viewBox="0 0 494.403 494.403" width="512" xmlns="http://www.w3.org/2000/svg"><g><g fill="#e1d3ce"><path d="m122.362 433.765-60.454-58.073 14.62-8.756 50.86 50.861z"/><path d="m93.972 467.808-70.472-67.366 11.971-11.443 70.473 67.366z"/><path d="m416.977 135.197-57.961-60.755 12.088-12.67 57.962 60.755z"/><path d="m457.441 110.026-68.068-71.801 11.317-12.425 68.068 71.801z"/><path d="m284.045 147.694h15v110.326h-15z" transform="matrix(.707 -.707 .707 .707 -58.051 265.567)"/><path d="m198.319 233.421h15v110.326h-15z" transform="matrix(.707 -.707 .707 .707 -143.776 230.058)"/></g><path d="m90.894 489.544c-6.479-6.479-6.479-16.985 0-23.464 42.036-42.036 42.024-82.33 42.008-128.987-.015-47.202-.032-100.702 51.728-152.462s105.26-51.743 152.462-51.728c46.657.015 86.951.028 128.987-42.008 6.479-6.479 16.985-6.479 23.464 0s6.479 16.985 0 23.464c-51.76 51.76-105.26 51.743-152.462 51.728-46.657-.015-86.95-.028-128.987 42.008s-42.023 82.33-42.008 128.987c.015 47.202.032 100.702-51.728 152.462-6.479 6.479-16.984 6.479-23.464 0z" fill="#fe646f"/><path d="m489.544 90.894c-6.479-6.479-16.985-6.479-23.464 0-1.261 1.261-2.521 2.483-3.78 3.669 3.517 6.314 2.607 14.431-2.756 19.794-51.76 51.76-105.26 51.743-152.462 51.728-46.656-.015-86.95-.028-128.987 42.008-42.036 42.037-42.023 82.33-42.008 128.987.015 46.047.022 98.086-48.028 148.658.743 1.364 1.682 2.65 2.836 3.805 6.479 6.479 16.985 6.479 23.464 0 51.76-51.76 51.743-105.26 51.728-152.462-.015-46.657-.028-86.95 42.008-128.987 42.037-42.036 82.33-42.023 128.987-42.008 47.202.015 100.702.032 152.462-51.728 6.479-6.479 6.479-16.984 0-23.464z" fill="#fd4755"/><path d="m4.86 403.509c-6.479-6.479-6.479-16.985 0-23.464 51.76-51.76 105.26-51.743 152.462-51.728 46.657.015 86.95.028 128.987-42.008s42.023-82.33 42.008-128.987c-.015-47.202-.032-100.702 51.728-152.462 6.479-6.479 16.985-6.479 23.464 0s6.479 16.985 0 23.464c-42.036 42.036-42.024 82.33-42.008 128.987.015 47.202.032 100.702-51.728 152.462s-105.26 51.743-152.462 51.728c-46.657-.015-86.951-.028-128.987 42.008-6.48 6.479-16.985 6.479-23.464 0z" fill="#60b7ff"/><path d="m403.509 4.859c-6.479-6.479-16.985-6.479-23.464 0-1.267 1.267-2.494 2.536-3.7 3.805 3.428 6.294 2.489 14.334-2.836 19.66-42.036 42.036-42.024 82.33-42.008 128.987.015 47.202.032 100.702-51.728 152.461s-105.26 51.743-152.461 51.728c-45.257-.015-84.527-.025-125.208 38.339.731 1.313 1.641 2.554 2.756 3.669 6.479 6.479 16.985 6.479 23.464 0 42.036-42.037 82.33-42.023 128.987-42.008 47.202.015 100.702.032 152.461-51.728s51.743-105.259 51.728-152.461c-.015-46.657-.028-86.951 42.008-128.987 6.48-6.48 6.48-16.985.001-23.465z" fill="#26a6fe"/><path d="m240.667 191.073h15v110.326h-15z" fill="#e1d3ce" transform="matrix(.707 -.707 .707 .707 -101.428 247.6)"/></g></svg>