<svg id="color_copy" height="512" viewBox="0 0 256 256" width="512" xmlns="http://www.w3.org/2000/svg" data-name="color copy"><path d="m134.48 57.5369a7.8212 7.8212 0 0 1 14.7913-3.5534l9.9773-9.9773a21.6839 21.6839 0 0 0 -38.6383 13.5307v23.1041l-31.4586 22.7784h77.516l-32.1877-23.1905z" fill="#276e04"/><path d="m130.4365 158.1482c0 36.9284-26.0435 61.3169-58.17 61.3169s-52.3565-24.3885-52.3565-61.3169 20.23-66.8649 52.3566-66.8649 58.1699 29.9367 58.1699 66.8649z" fill="#f39f2b"/><path d="m125.3829 158.1482c0 36.9284 26.0435 61.3169 58.17 61.3169s52.3565-24.3885 52.3565-61.3169-20.23-66.8648-52.3565-66.8648-58.17 29.9366-58.17 66.8648z" fill="#f18022"/><path d="m128.0523 99.8355c-6.1717-5.4434-13.2931-8.5522-20.8786-8.5522-23.5541 0-36.8351 29.9364-36.8351 66.8648s13.281 61.3169 36.8351 61.3169c7.5855 0 14.7069-3.1088 20.8786-8.5522z" fill="#f18022"/><path d="m127.7671 99.8355c6.1717-5.4434 13.2931-8.5522 20.8786-8.5522 23.5541 0 36.8351 29.9364 36.8351 66.8648s-13.281 61.3169-36.8351 61.3169c-7.5855 0-14.7069-3.1088-20.8786-8.5522z" fill="#f39f2b"/></svg>